<svg id="Huge-icon_social_solid_whatsapp" data-name="Huge-icon/social/solid/whatsapp" xmlns="http://www.w3.org/2000/svg" width="18" height="18" viewBox="0 0 18 18">
  <g id="whatsapp">
    <path id="combo_shape" data-name="combo shape" d="M18,9A9,9,0,0,1,5.157,17.141l-3.92.653A.9.9,0,0,1,.2,16.762l.641-3.956A9,9,0,1,1,18,9Zm-5.4,2.407V11.8a.8.8,0,0,1-.8.8A6.4,6.4,0,0,1,5.4,6.2a.8.8,0,0,1,.8-.8h.393A1.193,1.193,0,0,1,7.7,6.15l.168.42A.972.972,0,0,1,7.4,7.8a3.748,3.748,0,0,0,2.8,2.8.972.972,0,0,1,1.23-.468l.42.168A1.193,1.193,0,0,1,12.6,11.407Z" fill="#b4eaee" fill-rule="evenodd"/>
  </g>
</svg>
