<svg xmlns="http://www.w3.org/2000/svg" xmlns:xlink="http://www.w3.org/1999/xlink" width="229" height="133.727" viewBox="0 0 229 133.727">
  <defs>
    <linearGradient id="linear-gradient" x1="0.5" x2="-0.148" y2="0.717" gradientUnits="objectBoundingBox">
      <stop offset="0" stop-color="#44424b"/>
      <stop offset="1" stop-color="#44424b"/>
    </linearGradient>
    <clipPath id="clip-path">
      <path id="Path_41" data-name="Path 41" d="M2809.947-760.154a51.8,51.8,0,0,0-15.664,5.814,54.365,54.365,0,0,0-12.583,11.368l-2-2.734-.3-8.374,5.51-8.982,8.765-4.339h7.116l5.077,2.386,4.643,3.949Z" transform="translate(-2779.4 767.4)" fill="url(#linear-gradient)"/>
    </clipPath>
  </defs>
  <g id="لوگو_بالا" data-name="لوگو بالا" transform="translate(-565 -5144.355)">
    <path id="Rectangle_41017" data-name="Rectangle 41017" d="M0,0H229a0,0,0,0,1,0,0V27a35,35,0,0,1-35,35H35A35,35,0,0,1,0,27V0A0,0,0,0,1,0,0Z" transform="translate(565 5192)" fill="#fff" opacity="0.14"/>
    <path id="Rectangle_41021" data-name="Rectangle 41021" d="M0,0H229a0,0,0,0,1,0,0V27a35,35,0,0,1-35,35H35A35,35,0,0,1,0,27V0A0,0,0,0,1,0,0Z" transform="translate(565 5187)" fill="#fff"/>
    <g id="لوگو" transform="translate(-271.334 5148.219)">
      <rect id="Rectangle_41059" data-name="Rectangle 41059" width="107" height="33" rx="10" transform="translate(876 46)" fill="#ff8a4a" opacity="0.06"/>
      <g id="Group_83578" data-name="Group 83578" transform="translate(879.635 -1620.692)">
        <g id="Group_83577" data-name="Group 83577" transform="translate(1.365 1664.941)">
          <path id="Path_179941" data-name="Path 179941" d="M6.59,1732.941c-.282.388-.548.753-.813,1.118-.091.125-.235.134-.365.175a4.044,4.044,0,1,0,5.229,3.908c0-1.9.007-3.793-.007-5.689a.816.816,0,0,1,.323-.746c.273-.205.517-.45.8-.7a.853.853,0,0,1,.06.467c0,1.8.026,3.6-.008,5.4a1.535,1.535,0,0,0,1.611,1.623c1.484.04,2.122-.548,2.053-2.074-.074-1.644-.009-3.294-.024-4.941a.682.682,0,0,1,.336-.686c.267-.16.505-.369.829-.611v.522q0,3.094,0,6.188a1.4,1.4,0,0,0,1.587,1.573,4.673,4.673,0,0,0,.9,0,1.289,1.289,0,0,0,.987-1.32c.01-.706-.013-1.413.014-2.117a5.245,5.245,0,1,1,6.335,5.456,5.1,5.1,0,0,1-5.19-1.848c-.09-.1-.17-.217-.257-.327-.152.058-.183.207-.262.312a2.47,2.47,0,0,1-2.073,1.014,3.041,3.041,0,0,1-2.529-.885c-.087-.1-.149-.075-.233.01-1.254,1.264-2.669.959-4.171.453a5.134,5.134,0,0,1-3.544,3.888,4.869,4.869,0,0,1-3.528-.134,5.286,5.286,0,0,1-3.094-6.3A5.12,5.12,0,0,1,6.59,1732.941Zm18.738-1.626a4.031,4.031,0,1,0,0,8.063,4.031,4.031,0,1,0,0-8.063Z" transform="translate(3.635 -1724.666)" stroke="#0d0c11" stroke-width="1"/>
          <path id="Path_179942" data-name="Path 179942" d="M520.9,1677.171a3.822,3.822,0,0,0,3.043,1.5c2.421-.049,4.844.026,7.265-.028a3.86,3.86,0,0,0,3.635-2.4,3.816,3.816,0,0,0-.683-4.326,4.125,4.125,0,0,0-5.5-.525,3.965,3.965,0,0,0-1.025,1.237.5.5,0,0,1-.551.3c-.151-.014-.3,0-.456,0-.463,0-.463,0-.276-.407a5.3,5.3,0,0,1,1.083-1.558q2.868-2.856,5.721-5.729a.87.87,0,0,1,.727-.29c.385.021.771.005,1.274.005l-4.535,4.392c.457.022.825.017,1.19.062a5.274,5.274,0,0,1,.285,10.382,5.965,5.965,0,0,1-1.112.108c-2.353.01-4.706-.032-7.058.015a5.1,5.1,0,0,1-3.463-1.469C519.849,1677.908,520.327,1676.518,520.9,1677.171Z" transform="translate(-475.912 -1664.941)" stroke="#0d0c11" stroke-width="1"/>
          <path id="Path_179943" data-name="Path 179943" d="M734.782,1731.087a.715.715,0,0,1,.06.434q0,3.176,0,6.352a2.53,2.53,0,0,1-2.684,2.674c-2.1,0-4.207-.019-6.311.008a2.868,2.868,0,0,1-2.578-1.178c-.977,1.173-2.088,2.185-3.129,3.264-.663.687-1.338,1.362-2.005,2.045a.5.5,0,0,1-.394.184c-.464-.011-.928,0-1.507,0l1.656-1.646c1.266-1.258,2.54-2.509,3.8-3.776a3.955,3.955,0,0,0,.23-5.387,1.363,1.363,0,0,1-.4-1.105,5.979,5.979,0,0,0,0-.649.152.152,0,0,1,.2.02,5.114,5.114,0,0,1,2.27,3.654,15.228,15.228,0,0,1-.037,1.815,1.432,1.432,0,0,0,1.576,1.6h6.643a1.454,1.454,0,0,0,1.562-1.545c.005-1.813.013-3.626-.008-5.439a.828.828,0,0,1,.42-.852A5.89,5.89,0,0,0,734.782,1731.087Z" transform="translate(-656.849 -1725.592)" stroke="#0d0c11" stroke-width="1"/>
          <path id="Path_179944" data-name="Path 179944" d="M375.345,1666.168a.955.955,0,0,1,.069.537q.021,5.854.035,11.708a1.367,1.367,0,0,0,1.557,1.456c.83-.023,1.664-.049,2.491.006a1.575,1.575,0,0,0,1.607-1.62c-.03-1.785,0-3.571-.019-5.356a.892.892,0,0,1,.462-.915,5.083,5.083,0,0,0,.564-.419c.127.134.072.278.072.406q.006,3.218,0,6.436a2.449,2.449,0,0,1-2.213,2.568,14.537,14.537,0,0,1-3.518-.027,2.414,2.414,0,0,1-2.1-2.326c-.047-1.2-.032-2.407-.034-3.611,0-2.45.008-4.9-.01-7.35a1.024,1.024,0,0,1,.462-1.016A4.978,4.978,0,0,0,375.345,1666.168Z" transform="translate(-337.332 -1666.066)" stroke="#0d0c11" stroke-width="1"/>
        </g>
      </g>
      <path id="Rectangle_41050" data-name="Rectangle 41050" d="M0,0H2A1,1,0,0,1,3,1V3A0,0,0,0,1,3,3H1A1,1,0,0,1,0,2V0A0,0,0,0,1,0,0Z" transform="translate(901 61)" fill="#0d0c11"/>
      <path id="Rectangle_41055" data-name="Rectangle 41055" d="M0,0H2A1,1,0,0,1,3,1V3A0,0,0,0,1,3,3H1A1,1,0,0,1,0,2V0A0,0,0,0,1,0,0Z" transform="translate(956 45)" fill="#0d0c11"/>
      <path id="Rectangle_41057" data-name="Rectangle 41057" d="M0,0H2A1,1,0,0,1,3,1V3A0,0,0,0,1,3,3H1A1,1,0,0,1,0,2V0A0,0,0,0,1,0,0Z" transform="translate(925 45)" fill="#0d0c11"/>
      <path id="Rectangle_41052" data-name="Rectangle 41052" d="M0,0H2A1,1,0,0,1,3,1V3A0,0,0,0,1,3,3H1A1,1,0,0,1,0,2V0A0,0,0,0,1,0,0Z" transform="translate(890 56)" fill="#0d0c11"/>
      <path id="Rectangle_41051" data-name="Rectangle 41051" d="M0,0H2A1,1,0,0,1,3,1V3A0,0,0,0,1,3,3H1A1,1,0,0,1,0,2V0A0,0,0,0,1,0,0Z" transform="translate(897 61)" fill="#0d0c11"/>
      <path id="Rectangle_41056" data-name="Rectangle 41056" d="M0,0H2A1,1,0,0,1,3,1V3A0,0,0,0,1,3,3H1A1,1,0,0,1,0,2V0A0,0,0,0,1,0,0Z" transform="translate(952 45)" fill="#0d0c11"/>
      <path id="Rectangle_41058" data-name="Rectangle 41058" d="M0,0H2A1,1,0,0,1,3,1V3A0,0,0,0,1,3,3H1A1,1,0,0,1,0,2V0A0,0,0,0,1,0,0Z" transform="translate(921 45)" fill="#0d0c11"/>
      <text id="Turktamin" transform="translate(886 78)" fill="#00a9b8" font-size="20" font-family="SegoeUI-Bold, Segoe UI" font-weight="700" letter-spacing="0.01em"><tspan x="0" y="0">Turk</tspan><tspan y="0" fill="#ff8a4a">tamin</tspan></text>
      <g id="لوگو-2" data-name="لوگو" transform="translate(809.971 -99.548)">
        <g id="map-marker-3-svgrepo-com" transform="translate(159.333 135.548)">
          <path id="Path_28" data-name="Path 28" d="M8.757,14.287a23.218,23.218,0,0,0,2.866,29.221l8.608,6.777L27.908,58l7.677-7.715,8.608-6.777a23.183,23.183,0,0,0-7.47-37.746A22.975,22.975,0,0,0,8.757,14.287Z" transform="translate(-0.889 -7.17) rotate(7)" fill="rgba(0,169,184,0.53)" fill-rule="evenodd" opacity="0.26"/>
          <path id="Path_179945" data-name="Path 179945" d="M8.757,14.287a23.218,23.218,0,0,0,2.866,29.221l8.608,6.777L27.908,58l7.677-7.715,8.608-6.777a23.183,23.183,0,0,0-7.47-37.746A22.975,22.975,0,0,0,8.757,14.287Z" transform="translate(-4.875 -4)" fill="#ff8a4a" fill-rule="evenodd"/>
          <path id="Path_29" data-name="Path 29" d="M17.1,24a7.629,7.629,0,0,0,7.367-7.819A7.616,7.616,0,0,0,16.9,8.572,7.716,7.716,0,0,0,17.1,24Z" transform="translate(5.931 6.857)" fill="#0d0c11" fill-rule="evenodd"/>
        </g>
        <circle id="Ellipse_1" data-name="Ellipse 1" cx="17.681" cy="17.681" r="17.681" transform="translate(164.685 140.044)" fill="#fff"/>
        <g id="Group_20" data-name="Group 20" transform="translate(165.553 141.084)">
          <g id="Group_19" data-name="Group 19">
            <path id="Path_30" data-name="Path 30" d="M2934.2-738.083h-1.085l-.465,1.612s-.976.48-1.3,0,0-1.922,0-1.922l-3.006.775-1.054-2.139,3.347-.558s-1-1.395-.62-1.86,2.139,0,2.139,0l1.86,2.634Z" transform="translate(-2895.766 747.116)" fill="#fff"/>
            <path id="Path_26" data-name="Path 26" d="M275.017,1252.285a2.9,2.9,0,0,1-.134,1.25,16.422,16.422,0,0,1-14.473,13.086c-6.509.6-11.718-1.9-15.534-7.246a.9.9,0,0,1,.036-1.234,40.729,40.729,0,0,1,27.733-16.632c1.278-.189,2.564-.27,3.85-.35.962-.06,1.109-.272.764-1.182-.075-.2-.158-.393-.221-.594a.279.279,0,0,1,.13-.379.3.3,0,0,1,.392.1c.04.049.073.1.111.154.831,1.107.829,1.1,2.181.752.4-.1.529-.284.37-.681q-.508-1.265-.983-2.544c-.1-.26-.321-.566.087-.764.378-.183.63-.009.844.318.567.867,1.17,1.711,1.723,2.586a.684.684,0,0,0,.883.37,8.972,8.972,0,0,1,1.547-.325c.435-.046.985-.065,1.105.488.115.527-.339.787-.769.939a5.687,5.687,0,0,1-1.289.32c-.688.072-.9.459-.96,1.089-.085.946-.245,1.886-.353,2.831-.043.376-.213.589-.593.605-.435.019-.37-.329-.4-.582q-.139-1.356-.249-2.715c-.034-.417-.168-.649-.635-.466a1.6,1.6,0,0,1-.373.07c-1.049.138-1.049.137-1.219,1.194a.838.838,0,0,1-.035.187c-.09.219-.043.593-.386.567s-.241-.382-.273-.615c-.02-.146,0-.3-.027-.442-.111-.717-.324-.859-1.032-.67-1.37.366-2.724.783-4.057,1.267a37.4,37.4,0,0,0-14.219,8.82,8.832,8.832,0,0,0-2.7,4.718,4.106,4.106,0,0,0,2.152,4.48,8.112,8.112,0,0,0,5.11.853c5.757-.706,9.609-3.84,11.629-9.259C274.808,1252.523,274.806,1252.353,275.017,1252.285Z" transform="translate(-241.87 -1233.551)" fill="#00a9b8"/>
            <path id="Path_27" data-name="Path 27" d="M222.853,1239.547a.545.545,0,0,1,.2-.767c.357-.281.486.143.81.332-.154-.609-.284-1.112-.409-1.615a16.581,16.581,0,0,1,13.778-20.274,16.278,16.278,0,0,1,14.941,5.679c.1.11.178.237.275.349.252.292.235.48-.188.543a10.223,10.223,0,0,0-1.061.19.994.994,0,0,1-1.07-.349,13.98,13.98,0,0,0-3.872-2.937c-.419-.218-.611-.161-.71.3a12.18,12.18,0,0,1-.895,2.639.943.943,0,0,0,.222,1.234c.53.521.483.653-.191.9a40.788,40.788,0,0,0-5.286,2.307.476.476,0,0,1-.331.044c.5-.505.99-1,1.441-1.532a16.586,16.586,0,0,0,1.146-1.518c.169-.254.239-.5-.03-.731a15.067,15.067,0,0,0-5.681-3.476,6.271,6.271,0,0,0-2.384-.225c-.48.05-.632.22-.339.694,1.39,2.249,2.753,4.513,4.133,6.768.5.823.512.821-.291,1.3a2.739,2.739,0,0,0-.325.2c-.421.339-.679.217-.946-.231-1.378-2.305-2.781-4.6-4.178-6.89-.416-.684-.481-.689-.91-.022a8.116,8.116,0,0,0-1.01,5.136,20.883,20.883,0,0,0,.539,3.25.756.756,0,0,0,.988.677,14.284,14.284,0,0,0,2.843-.634c.234-.083.472-.154.719-.234.071.289-.139.329-.258.413a36.789,36.789,0,0,0-4.408,3.618c-.4.39-.613.3-.721-.181-.171-.768-.658-.962-1.39-.957a9.885,9.885,0,0,1-2.438-.383c-.468-.117-.609.041-.606.492a13.148,13.148,0,0,0,.787,4.6,1.227,1.227,0,0,1-.263,1.491,1.269,1.269,0,0,0-.115.152c-.694.894-.711.9-1.194-.124-.193-.41-.6-.4-.889-.623-.154.2.121.534-.252.6Zm4.742-14.262a14.948,14.948,0,0,0-2.3,5.307c-.078.35.138.462.4.519q.99.214,1.987.4c.518.1.689-.09.55-.625a16.968,16.968,0,0,1-.5-4.965A.772.772,0,0,0,227.6,1225.285Zm10.06-5.936a10.049,10.049,0,0,1,2.462,1.3,3.406,3.406,0,0,0,2.339.743c.966-.046.968.016,1.185-.907.168-.716.089-.831-.628-1.009a15.7,15.7,0,0,0-4.654-.382A.812.812,0,0,0,237.656,1219.349Z" transform="translate(-222.767 -1217.06)" fill="#00a9b8" opacity="0.06"/>
          </g>
        </g>
        <g id="Mask_Group_4" data-name="Mask Group 4" transform="translate(164.988 140.391)" clip-path="url(#clip-path)">
          <g id="Group_28" data-name="Group 28" transform="translate(-1.257 3.379) rotate(-8)">
            <g id="Group_27" data-name="Group 27" transform="translate(0 0)">
              <path id="Path_47" data-name="Path 47" d="M23.417,7.722A16.647,16.647,0,0,1,.729,23.352c-.665-.266-.842-.564-.664-1.271Q4.222,5.623,20.3.219c1.111-.375,1.13-.349,1.62.727A15.648,15.648,0,0,1,23.417,7.722Z" transform="translate(9.758 8.752)" fill="url(#linear-gradient)"/>
              <path id="Path_48" data-name="Path 48" d="M29.4,6.231C17.958,5.373,8.182,8.854.047,16.924-.436,11.817,2.8,4.292,10.239,1.25,18.263-2.03,26.175,1.677,29.4,6.231Z" fill="url(#linear-gradient)"/>
              <path id="Path_49" data-name="Path 49" d="M29.826.045C17.917,1.966,8.934,8.049,2.8,18.5a6.667,6.667,0,0,1-.452-.566A17.592,17.592,0,0,1,.037,12.1,1.287,1.287,0,0,1,.464,10.8,36.767,36.767,0,0,1,24.162.065C26.041-.068,27.938.045,29.826.045Z" transform="translate(0.162 7.561)" fill="url(#linear-gradient)"/>
              <path id="Path_51" data-name="Path 51" d="M16.259.208A28.777,28.777,0,0,0,4.041,20,13.728,13.728,0,0,1,.06,16.872c-.135-.155-.019-.637.112-.9A34.17,34.17,0,0,1,11.82,2.609C13.208,1.67,14.688.866,16.126,0Z" transform="translate(4.376 11.061)" fill="url(#linear-gradient)"/>
            </g>
          </g>
        </g>
        <g id="Emblem_of_Turkey" data-name="Emblem of Turkey" transform="matrix(0.731, -0.682, 0.682, 0.731, 183.559, 161.124)">
          <path id="Path_3" data-name="Path 3" d="M7.548,1.517l-2.886.936L2.88,0V3.035L0,3.971l2.88.936V7.942L4.662,5.488l2.886.936L5.766,3.971Z" transform="translate(0 0)" fill="#00a9b8"/>
        </g>
      </g>
    </g>
  </g>
</svg>
